# xmcd
#
# Track frame offsets:
#	150
#	13306
#	25828
#	42860
#	58713
#	68500
#	79971
#	92465
#	106425
#	118580
#	131910
#	143056
#	161540
#	172829
#	187731
#	198404
#	210258
#
# Disc length: 2964 seconds
#
# Revision: 1
# Processed by: cddbd v1.5.2PL0 Copyright (c) Steve Scherf et al.
# Submitted via: FairStars CD Ripper 1.80
#
DISCID=dc0b9211
DTITLE=Various Artist - Ballroom Dance Collection Foxtrot
DYEAR=2001
DGENRE=Dance
TTITLE0=Connie Francis - I Will Wait For You 27TM
TTITLE1=Henri Salvador - Petit Fleur 28TM
TTITLE2=Amber Couple - Fallen Leaves 28TM
TTITLE3=Frank Sinatra - New York, New York 28TM
TTITLE4=Nat King Cole - More 28TM
TTITLE5=Sinead O'Connor - Why Don't You Do Right 28TM
TTITLE6=Sinead O'Connor - I Want To Be Loved By You 29TM
TTITLE7=Ruby Murray - Boy Meets Girl 29TM
TTITLE8=Nat King Cole - Night Lights 29TM
TTITLE9=Doris Day - Cheek To Cheek 29TM
TTITLE10=Dancing Ballroom Orchestra - Heaven Can Do Without You 29TM
TTITLE11=Adriano Celentano - Soli 29TM
TTITLE12=Dancing Ballroom Orchestra - Ecco la felicita 29TM
TTITLE13=ABBA - I Do, I Do, I Do 29TM
TTITLE14=Dancing Ballroom Orchestra - Walking On A Sunday 29TM
TTITLE15=Vittorio - Der Liebling von allen 29TM
TTITLE16=Bobby Darin - I'm Begining To See The Light 29TM
EXTD=
EXTT0=
EXTT1=
EXTT2=
EXTT3=
EXTT4=
EXTT5=
EXTT6=
EXTT7=
EXTT8=
EXTT9=
EXTT10=
EXTT11=
EXTT12=
EXTT13=
EXTT14=
EXTT15=
EXTT16=
PLAYORDER=
